# Blender v2.77 (sub 0) OBJ File: ''
# www.blender.org
mtllib untitled..mtl
o 0_Part1
v 0.168145 0.715554 0.124837
v -0.356920 0.383091 0.070536
v 0.168145 0.416102 0.075927
v -0.025706 0.383091 0.070536
v -0.025706 0.715554 0.124837
v -0.356920 0.715554 0.124837
v 0.533749 0.416102 0.075927
v 0.533749 0.715554 0.124837
v 0.533749 0.418913 0.058716
v 0.533749 0.718366 0.107626
v 0.168145 0.418913 0.058717
v 0.168145 0.718366 0.107626
v 0.508155 0.443424 0.062720
v 0.193740 0.443424 0.062720
v 0.193740 0.693854 0.103623
v 0.508155 0.693854 0.103623
v 0.502244 0.447211 0.075118
v 0.502244 0.686319 0.114172
v 0.199651 0.686319 0.114172
v 0.199651 0.447211 0.075118
v -0.025706 0.385902 0.053325
v -0.025706 0.718366 0.107626
v -0.356920 0.385902 0.053325
v -0.356920 0.718366 0.107626
v -0.051301 0.410413 0.057328
v -0.331325 0.410413 0.057328
v -0.331325 0.693854 0.103623
v -0.051301 0.693854 0.103623
v -0.057212 0.414200 0.069727
v -0.057212 0.686319 0.114172
v -0.325414 0.686319 0.114172
v -0.325414 0.414200 0.069727
vn 1.0000 0.0000 0.0000
vn -0.0000 -0.9869 -0.1612
vn -1.0000 -0.0000 0.0000
vn 0.0000 0.9869 0.1612
vn -0.0000 0.1612 -0.9869
vn -0.8914 0.0731 -0.4473
vn -0.0000 -0.8137 -0.5812
vn -0.0000 -0.8138 -0.5812
vn 0.8914 0.0731 -0.4473
vn -0.0000 0.9564 -0.2921
usemtl None
s off
f 9//1 10//1 7//1
f 7//1 10//1 8//1
f 11//2 9//2 3//2
f 3//2 9//2 7//2
f 12//3 11//3 1//3
f 1//3 11//3 3//3
f 10//4 12//4 8//4
f 8//4 12//4 1//4
f 13//5 9//5 14//5
f 14//5 9//5 11//5
f 14//5 11//5 15//5
f 15//5 11//5 12//5
f 15//5 12//5 16//5
f 16//5 12//5 10//5
f 16//5 10//5 13//5
f 13//5 10//5 9//5
f 17//6 18//6 13//6
f 13//6 18//6 16//6
f 18//7 19//7 16//7
f 16//8 19//8 15//8
f 19//9 20//9 15//9
f 15//9 20//9 14//9
f 20//10 17//10 14//10
f 14//10 17//10 13//10
f 20//5 19//5 17//5
f 17//5 19//5 18//5
f 21//1 22//1 4//1
f 4//1 22//1 5//1
f 23//2 21//2 2//2
f 2//2 21//2 4//2
f 24//3 23//3 6//3
f 6//3 23//3 2//3
f 22//4 24//4 5//4
f 5//4 24//4 6//4
f 25//5 21//5 26//5
f 26//5 21//5 23//5
f 26//5 23//5 27//5
f 27//5 23//5 24//5
f 27//5 24//5 28//5
f 28//5 24//5 22//5
f 28//5 22//5 25//5
f 25//5 22//5 21//5
f 29//6 30//6 25//6
f 25//6 30//6 28//6
f 30//8 31//8 28//8
f 28//8 31//8 27//8
f 31//9 32//9 27//9
f 27//9 32//9 26//9
f 32//10 29//10 26//10
f 26//10 29//10 25//10
f 32//5 31//5 29//5
f 29//5 31//5 30//5
